<svg xmlns="http://www.w3.org/2000/svg" width="84.625" height="92.918" viewBox="0 0 84.625 92.918">
  <g id="Group_287" data-name="Group 287" transform="translate(-140 -88.656)">
    <g id="Group_272" data-name="Group 272" transform="translate(0 27)">
      <text id="Phue" transform="translate(158.313 149.574)" fill="#fff" font-size="23" font-family="BigShouldersDisplay-Bold, Big Shoulders Display" font-weight="700" letter-spacing="0.164em"><tspan x="0" y="0">PHUE</tspan></text>
      <g id="Group_59" data-name="Group 59" transform="translate(1261 -2089.344)">
        <path id="Path_21" data-name="Path 21" d="M130.455,73.123s0-.216-.012-.634c0-.209-.023-.468-.037-.777-.007-.154-.027-.319-.041-.5s-.031-.368-.058-.569a20.042,20.042,0,0,0-.558-2.926l-.118-.433c-.041-.147-.09-.294-.135-.445-.089-.3-.2-.61-.309-.928-.232-.632-.5-1.3-.824-1.98a27.013,27.013,0,0,0-6.593-8.616,36.2,36.2,0,0,0-5.422-3.959,43.761,43.761,0,0,0-6.693-3.257q-1.815-.707-3.758-1.287-.971-.288-1.97-.543c-.333-.086-.667-.172-1-.249l-.507-.12-.511-.111c-1.368-.293-2.768-.549-4.2-.745s-2.889-.352-4.373-.442c-.74-.047-1.493-.085-2.238-.1-.372-.008-.741-.02-1.135-.019l-.583,0-.56,0c-1.526.011-3.069.091-4.623.221a56.8,56.8,0,0,0-9.4,1.615,48.415,48.415,0,0,0-9.241,3.407,38.031,38.031,0,0,0-8.4,5.558,30.881,30.881,0,0,0-3.524,3.684,25.53,25.53,0,0,0-2.8,4.282,22.379,22.379,0,0,0-1.814,4.789,20.159,20.159,0,0,0-.466,2.523l-.04.318-.029.32c-.018.212-.042.427-.049.636s-.026.414-.031.636l-.012.664.014.629c0,.214.022.427.032.641s.033.427.051.64l.029.319.041.319a20.046,20.046,0,0,0,.473,2.52,22.322,22.322,0,0,0,1.826,4.779A25.5,25.5,0,0,0,53.67,87.25,30.841,30.841,0,0,0,57.2,90.915a38.057,38.057,0,0,0,8.4,5.519,49.05,49.05,0,0,0,9.229,3.375,57.088,57.088,0,0,0,9.377,1.6c.776.062,1.548.117,2.317.154.384.017.769.037,1.145.044l.566.015.585.006c1.522.015,3.026-.022,4.505-.12a55.375,55.375,0,0,0,16.291-3.465,39.879,39.879,0,0,0,12.114-7.163,26.927,26.927,0,0,0,6.611-8.581c.329-.68.6-1.344.829-1.975.11-.318.222-.624.311-.926.046-.15.095-.3.136-.444l.118-.432A19.925,19.925,0,0,0,130.3,75.6c.028-.2.044-.39.06-.568s.035-.344.043-.5c.015-.307.036-.555.039-.771.009-.429.014-.651.014-.651Zm1.1.009s0,.222-.009.651c0,.213-.021.5-.036.822-.007.165-.026.337-.041.525s-.031.387-.059.6a23.328,23.328,0,0,1-.559,3.084,24.808,24.808,0,0,1-1.386,4.005,30.135,30.135,0,0,1-6.605,9.282,42.022,42.022,0,0,1-12.319,8.186,52,52,0,0,1-17.01,4.2c-1.558.113-3.14.172-4.743.159l-.588-.007-.611-.016c-.41-.009-.813-.03-1.217-.048s-.811-.048-1.218-.073-.814-.069-1.222-.1c-1.633-.156-3.277-.385-4.923-.7s-3.293-.7-4.931-1.176a48.107,48.107,0,0,1-9.6-3.935,40.415,40.415,0,0,1-8.612-6.226,32.664,32.664,0,0,1-3.593-4.031,28.6,28.6,0,0,1-2.853-4.63,24.021,24.021,0,0,1-2.333-7.844l-.041-.341-.03-.342c-.018-.228-.042-.456-.05-.685s-.026-.457-.03-.686l-.009-.7.011-.664c0-.221.022-.461.032-.691s.033-.46.052-.688l.03-.342.042-.341a23.281,23.281,0,0,1,1.281-5.318,24.359,24.359,0,0,1,1.071-2.513,28.523,28.523,0,0,1,2.863-4.615,32.58,32.58,0,0,1,3.6-4.012,40.4,40.4,0,0,1,8.613-6.186,48.605,48.605,0,0,1,9.585-3.9c1.636-.47,3.278-.865,4.922-1.166s3.283-.536,4.913-.69,3.248-.228,4.846-.245l.61,0,.583.008c.383,0,.787.016,1.186.029.8.025,1.575.07,2.354.126a53.911,53.911,0,0,1,8.955,1.44l.532.134.527.142c.351.092.7.193,1.045.294.691.2,1.371.424,2.04.652q2.008.687,3.878,1.507a41.983,41.983,0,0,1,12.318,8.131,30.064,30.064,0,0,1,6.623,9.247,24.666,24.666,0,0,1,1.4,4,23.321,23.321,0,0,1,.567,3.081c.028.211.044.411.06.6s.034.362.042.523c.015.325.035.6.037.817l.011.667Zm0,0" transform="translate(-1167.93 2109.27)" fill="#fff"/>
        <path id="Path_22" data-name="Path 22" d="M298.778,114.863l.2.022c.132.013.328.028.582.039.127.005.269.007.425.006.078,0,.159,0,.244,0l.13,0c.08,0,.1,0,.148,0,.165-.009.367-.028.572-.051l.321-.044.338-.06a11.9,11.9,0,0,0,1.5-.391,11.455,11.455,0,0,0,1.664-.715,2.161,2.161,0,0,0,.213-.117l.212-.126a4.749,4.749,0,0,0,.426-.267l.425-.294c.138-.107.274-.22.413-.332.069-.057.141-.111.21-.17l.2-.189.2-.19.1-.1.051-.048.013-.012c.01-.009-.043.042-.014.014l.025-.029.207-.23a.794.794,0,0,0,.082-.1l.069-.094.07-.094c.024-.032.049-.074.074-.111l.149-.229a9.724,9.724,0,0,0,.929-2.22,20.874,20.874,0,0,0,.574-2.647,47.409,47.409,0,0,0,.459-5.989c.03-1.051.03-2.124.028-3.212s-.025-2.191-.048-3.3-.058-2.238-.1-3.368-.074-2.266-.12-3.4-.082-2.277-.124-3.412-.068-2.268-.1-3.394-.043-2.244-.057-3.351-.006-2.2.012-3.282c.041-2.16.115-4.255.31-6.26.046-.5.108-1,.174-1.485q.027-.185.055-.368c.019-.127.042-.252.064-.376q.069-.372.158-.736a10.686,10.686,0,0,1,1.055-2.707,9.515,9.515,0,0,1,.769-1.146c.066-.092.144-.173.214-.259l.108-.126.054-.063.028-.032.013-.013.026-.027c.142-.145.266-.281.438-.438.081-.075.161-.152.241-.222l.238-.2c.156-.134.324-.248.482-.368s.327-.22.486-.327.327-.2.488-.288a9.874,9.874,0,0,1,1.906-.808,9.673,9.673,0,0,1,1.712-.351l.383-.034c.124-.012.245-.008.362-.012s.23-.008.34,0l.317.014c.1,0,.2.008.29.017s.186.018.271.029c.17.021.325.045.461.069.275.05.481.1.619.138l.209.058-.115.528-.2-.026c-.133-.016-.331-.034-.588-.048a8.327,8.327,0,0,0-2.2.192,9.456,9.456,0,0,0-1.489.472,9.32,9.32,0,0,0-1.607.868c-.133.092-.267.19-.4.287s-.265.207-.394.319-.262.224-.384.35l-.189.184c-.06.062-.115.125-.173.186-.111.112-.243.278-.37.429l-.024.029-.012.015c.024-.027,0,0,0,0l-.04.055-.081.11c-.053.075-.112.145-.16.225a7.916,7.916,0,0,0-.56.986,8.952,8.952,0,0,0-.707,2.32c-.034.209-.064.422-.087.638-.011.109-.023.218-.031.325s-.017.226-.025.34c-.027.46-.05.929-.059,1.408-.042,1.915.04,3.963.161,6.084.06,1.061.122,2.141.2,3.236s.136,2.207.206,3.326.134,2.251.19,3.388.111,2.28.155,3.425.077,2.292.105,3.436.032,2.285.033,3.42c-.008,2.269-.076,4.509-.244,6.683a47.745,47.745,0,0,1-.872,6.277,22.629,22.629,0,0,1-.826,2.893,11.7,11.7,0,0,1-1.311,2.615l-.219.294c-.038.049-.07.1-.112.146l-.129.15-.129.148a1.7,1.7,0,0,1-.123.133l-.221.216-.027.027-.042.04-.016.014-.064.053-.127.106-.252.21-.249.207c-.085.064-.174.124-.26.186-.173.121-.343.243-.513.359l-.524.311a5.846,5.846,0,0,1-.521.276l-.258.128a2.773,2.773,0,0,1-.258.118c-.174.071-.343.143-.512.209s-.339.115-.5.172l-.246.08c-.082.025-.164.044-.245.067-.162.042-.32.086-.477.123a11.955,11.955,0,0,1-1.741.245l-.387.016h-.366l-.345-.011c-.116-.009-.215-.014-.333-.027-.052-.005-.124-.014-.137-.017l-.145-.017c-.094-.012-.184-.024-.27-.038-.172-.026-.327-.058-.465-.087-.276-.059-.485-.119-.624-.161l-.209-.066Zm0,0" transform="translate(-1389.21 2096.1)" fill="#fff"/>
        <path id="Path_23" data-name="Path 23" d="M117.828,229.7s.2-.157.58-.428l.32-.225c.118-.082.253-.163.4-.255.29-.18.626-.393,1.013-.6a21.643,21.643,0,0,1,2.884-1.329,24.369,24.369,0,0,1,3.99-1.12c.75-.139,1.538-.256,2.36-.33l.622-.05.633-.037.641-.026.63-.02c.853-.025,1.748-.037,2.677-.005a22.3,22.3,0,0,1,2.882.284,14.61,14.61,0,0,1,3.012.827,12.15,12.15,0,0,1,1.489.721,10.754,10.754,0,0,1,1.4.971c.225.18.438.376.649.576l.307.31.131.141.143.158a9.647,9.647,0,0,1,1.058,1.415,7.575,7.575,0,0,1,.78,1.716c.043.157.09.313.127.472s.069.321.094.484.047.327.059.493l.013.248.006.125,0,.062a.645.645,0,0,1,0,.107v.023l-.012.366c0,.024,0,.075-.009.122l-.014.14-.032.28c-.006.045-.011.1-.018.137l-.023.121-.048.242c-.029.162-.077.316-.12.473a7.756,7.756,0,0,1-.753,1.73,9.056,9.056,0,0,1-1.046,1.44,12.245,12.245,0,0,1-1.186,1.181c-.059.05-.119.1-.177.152l-.169.134c-.113.089-.225.179-.343.261-.231.17-.47.324-.71.475a10.819,10.819,0,0,1-1.489.757,14.027,14.027,0,0,1-3.035.867,19.661,19.661,0,0,1-2.907.28c-.936.027-1.835,0-2.693-.033s-1.684-.076-2.525-.172a23.031,23.031,0,0,1-2.362-.384,23.315,23.315,0,0,1-3.975-1.225,21.053,21.053,0,0,1-2.854-1.412c-.381-.22-.71-.436-.993-.628s-.52-.358-.707-.5c-.376-.284-.569-.446-.569-.446l.037-.076s.251.043.7.145l.378.086.455.1c.163.035.339.072.524.115s.386.076.594.122c.832.176,1.839.37,2.983.556s2.432.356,3.83.478c.7.06,1.426.1,2.177.132.734.028,1.53.033,2.36.028s1.646-.025,2.47-.089a19.14,19.14,0,0,0,2.445-.337,10.684,10.684,0,0,0,2.291-.741,8.978,8.978,0,0,0,1.029-.557c.16-.107.321-.214.473-.332.079-.056.151-.118.226-.179l.111-.091c.035-.03.063-.057.094-.085a8.861,8.861,0,0,0,.845-.876,6.4,6.4,0,0,0,.653-.92,4.318,4.318,0,0,0,.408-.943,2.282,2.282,0,0,0,.061-.235l.024-.118.013-.058a.373.373,0,0,0,.005-.044c0-.028.007-.056.011-.083l.008-.042a.22.22,0,0,0,.007-.06l.013-.366v-.023c0,.146,0,.032,0,.061l0-.029,0-.059,0-.117c-.006-.078-.019-.156-.025-.234s-.03-.156-.042-.235-.041-.157-.06-.235a4.289,4.289,0,0,0-.414-.943,6.166,6.166,0,0,0-.663-.927l-.1-.114-.113-.127-.2-.211c-.135-.136-.27-.273-.417-.4a7.287,7.287,0,0,0-.93-.694,8.726,8.726,0,0,0-1.049-.554,11.965,11.965,0,0,0-2.325-.752,27.007,27.007,0,0,0-4.952-.5l-.62-.016-.592-.011h-.579l-.571.012c-.754.022-1.484.06-2.187.108-1.4.107-2.7.258-3.848.425s-2.165.331-3,.491c-.209.04-.411.07-.6.108s-.361.072-.526.1l-.458.084-.384.077C118.079,229.664,117.828,229.7,117.828,229.7Zm0,0" transform="translate(-1230.264 1947.909)" fill="#fff"/>
        <g id="Group_51" data-name="Group 51" transform="translate(-1072.534 2173.289)">
          <path id="Path_15" data-name="Path 15" d="M464.064,282.258q7.747.576,15.492,1.211,2.9.238,5.807.484-2.849.347-5.71.709-7.718.979-15.331,2.051a3.929,3.929,0,0,1-.8-2.473,3.985,3.985,0,0,1,.54-1.981" transform="translate(-461.671 -275.494)" fill="#fff"/>
          <path id="Path_16" data-name="Path 16" d="M477.088,230.7s-.25-.035-.71-.125l-.383-.077-.458-.084c-.165-.029-.339-.064-.525-.1s-.387-.068-.6-.108c-.836-.16-1.851-.324-3-.491s-2.444-.318-3.848-.425c-.7-.047-1.433-.085-2.188-.108l-.57-.012h-.579l-.592.011-.62.016a27.007,27.007,0,0,0-4.953.5,11.988,11.988,0,0,0-2.325.752,8.808,8.808,0,0,0-1.049.554,7.334,7.334,0,0,0-.93.695c-.147.125-.282.261-.417.4l-.2.211-.113.127-.1.114a6.16,6.16,0,0,0-.663.927,4.293,4.293,0,0,0-.414.943c-.018.079-.043.157-.06.235s-.032.157-.042.235-.02.156-.026.234l0,.117,0,.058,0,.03c0-.029,0,.085,0-.061v.023l.013.366a.227.227,0,0,0,.007.06l.008.042c0,.028.008.056.011.083s0,.025,0,.044l.013.058.024.118a2.21,2.21,0,0,0,.061.235,4.293,4.293,0,0,0,.408.943,6.418,6.418,0,0,0,.653.92,8.977,8.977,0,0,0,.845.876c.032.028.06.056.094.085l.112.091c.074.061.147.123.226.179.152.118.312.225.473.332a8.949,8.949,0,0,0,1.029.557,10.675,10.675,0,0,0,2.292.741,19.145,19.145,0,0,0,2.445.337c.824.065,1.65.084,2.47.089s1.626,0,2.36-.028c.751-.03,1.478-.071,2.177-.132,1.4-.122,2.684-.292,3.829-.478s2.151-.38,2.984-.556c.208-.046.409-.077.594-.122s.361-.08.524-.115l.455-.1.378-.086c.454-.1.7-.145.7-.145l.036.076s-.192.162-.568.446c-.187.144-.421.317-.707.5s-.612.408-.993.628a21.046,21.046,0,0,1-2.854,1.412,23.325,23.325,0,0,1-3.975,1.225,23.046,23.046,0,0,1-2.362.384c-.84.1-1.677.135-2.525.172s-1.756.059-2.693.033a19.671,19.671,0,0,1-2.907-.28,14.025,14.025,0,0,1-3.035-.867,10.819,10.819,0,0,1-1.488-.757c-.24-.151-.479-.305-.71-.475-.117-.082-.23-.171-.343-.261l-.169-.134c-.057-.047-.118-.1-.176-.152a12.315,12.315,0,0,1-1.187-1.181,9.029,9.029,0,0,1-1.045-1.44,7.729,7.729,0,0,1-.754-1.73c-.042-.157-.091-.311-.12-.473l-.048-.242-.024-.121c-.007-.041-.012-.092-.018-.137l-.032-.28-.014-.141c0-.046-.009-.1-.009-.122l-.012-.366v-.023a.674.674,0,0,1,0-.107l0-.062.006-.125.013-.248c.013-.165.038-.328.059-.493s.062-.323.095-.484.084-.315.127-.472a7.563,7.563,0,0,1,.78-1.716,9.692,9.692,0,0,1,1.058-1.415l.143-.158.132-.141.307-.31c.21-.2.424-.4.649-.576a10.787,10.787,0,0,1,1.4-.971,12.157,12.157,0,0,1,1.489-.721,14.614,14.614,0,0,1,3.012-.827,22.283,22.283,0,0,1,2.882-.284c.928-.032,1.824-.02,2.677.005l.63.02.64.026.633.037.622.05c.821.074,1.609.191,2.36.33a24.371,24.371,0,0,1,3.99,1.12,21.626,21.626,0,0,1,2.884,1.329c.387.2.723.417,1.012.6.144.092.279.172.4.255l.32.225C476.889,230.543,477.088,230.7,477.088,230.7Zm0,0" transform="translate(-448.183 -226.26)" fill="#fff"/>
        </g>
        <g id="Group_52" data-name="Group 52" transform="translate(-1075.26 2157.32)">
          <path id="Path_11" data-name="Path 11" d="M436.3,99.4a5.345,5.345,0,1,0-5.345,5.345A5.345,5.345,0,0,0,436.3,99.4" transform="translate(-425.613 -94.055)" fill="#fff"/>
          <path id="Path_17" data-name="Path 17" d="M498.914,114.248l-1.021-1.087c-.164-.17-.347-.356-.542-.562l-.646-.651c-.464-.461-.992-.972-1.579-1.513-.3-.269-.6-.55-.925-.833-.162-.141-.322-.289-.493-.43l-.516-.433c-.172-.149-.351-.294-.534-.438l-.551-.442c-.188-.146-.382-.289-.576-.435s-.386-.3-.59-.437c-.406-.281-.807-.58-1.236-.852l-.638-.419c-.216-.137-.437-.268-.657-.4s-.436-.275-.663-.4l-.677-.385-.339-.193-.346-.181-.692-.361-.173-.091-.043-.022c.045.026.006,0,.013.008l-.034-.017-.092-.044L485,103.45l-.731-.352-.694-.3c-.232-.1-.452-.2-.693-.3-.474-.188-.937-.387-1.409-.551l-.7-.255-.694-.229c-.456-.158-.914-.284-1.358-.419-.221-.068-.445-.121-.663-.181s-.434-.118-.648-.169c-.43-.1-.844-.207-1.25-.287l-.6-.128-.577-.11c-.752-.144-1.446-.245-2.06-.329-.308-.041-.6-.071-.862-.1l-.732-.073c-.443-.038-.789-.068-1.027-.081l-.363-.024.572-5.21.409.068c.267.042.657.115,1.152.208l.816.171c.3.069.616.14.956.224.679.17,1.443.37,2.263.624s1.7.549,2.62.9c.23.086.459.183.693.275s.47.184.705.29c.471.208.956.408,1.435.643l.728.344.727.372c.49.242.971.52,1.459.788.243.13.49.285.735.429l.735.443.678.444.34.223.085.056.021.014.01.007.035.021.043.031.173.121.691.486.344.243.336.254.668.505c.223.166.433.348.649.52s.428.347.636.523l.613.536c.411.349.792.723,1.176,1.077.193.176.372.365.555.544s.363.358.538.538l.512.54c.169.177.334.353.492.533.318.356.624.7.908,1.05.143.173.286.34.421.508l.389.5c.256.326.487.649.708.955s.417.606.607.882l.506.793c.151.247.285.478.408.685.24.419.422.751.537.978l.179.349Zm0,0" transform="translate(-464.59 -94.312)" fill="#fff"/>
        </g>
        <g id="Group_53" data-name="Group 53" transform="translate(-1116.391 2157.33)">
          <path id="Path_13" data-name="Path 13" d="M282.426,99.482a5.345,5.345,0,1,1,5.345,5.345,5.345,5.345,0,0,1-5.345-5.345" transform="translate(-258.591 -94.137)" fill="#fff"/>
          <path id="Path_18" data-name="Path 18" d="M85.09,114.039l.179-.349c.116-.227.3-.559.537-.978.123-.207.257-.437.409-.685l.505-.793c.19-.276.388-.575.607-.882s.452-.629.709-.955l.389-.5c.135-.168.278-.335.421-.508.283-.347.59-.695.908-1.05.157-.179.323-.356.492-.533l.512-.54c.175-.18.357-.357.538-.538s.362-.368.556-.544c.384-.354.765-.728,1.176-1.077l.613-.536c.208-.176.423-.348.636-.523s.427-.353.649-.52l.668-.505.335-.254.344-.243.691-.486.173-.121.043-.031.035-.021.011-.007.021-.014.085-.056.34-.222.679-.444.735-.443c.245-.143.493-.3.736-.429.488-.268.968-.546,1.458-.788l.728-.372.728-.344c.48-.235.964-.435,1.435-.643.235-.105.473-.194.706-.29s.463-.19.693-.275c.918-.347,1.8-.653,2.619-.9s1.584-.453,2.263-.624c.34-.083.66-.154.955-.224l.816-.171c.495-.093.885-.166,1.152-.208l.409-.068.572,5.21-.363.024c-.237.013-.584.042-1.027.081l-.732.073c-.266.032-.554.063-.862.1-.614.084-1.309.184-2.061.329l-.576.11-.6.128c-.406.081-.82.188-1.25.287-.214.051-.429.113-.648.169s-.442.113-.663.181c-.444.135-.9.261-1.358.419l-.694.229-.7.255c-.471.164-.934.363-1.409.551-.241.093-.46.2-.693.3l-.695.3-.731.352-.366.176-.092.044-.023.011-.011.005c.007,0-.032.018.013-.008l-.043.022-.173.091-.693.361-.346.181-.339.193-.677.385c-.227.126-.442.268-.663.4s-.441.266-.656.4l-.638.419c-.428.272-.83.571-1.236.852-.2.139-.395.293-.59.437s-.388.289-.576.435l-.552.442c-.183.144-.362.29-.534.438l-.516.433c-.171.141-.33.29-.492.43-.324.283-.629.563-.925.833-.588.541-1.115,1.053-1.58,1.513l-.646.651c-.194.206-.378.392-.542.562l-1.021,1.087Zm0,0" transform="translate(-85.09 -94.322)" fill="#fff"/>
        </g>
        <g id="Group_54" data-name="Group 54" transform="translate(-1075.554 2187.27)">
          <path id="Path_10" data-name="Path 10" d="M433.873,423.845a5.345,5.345,0,1,1-5.345-5.345,5.345,5.345,0,0,1,5.345,5.345" transform="translate(-423.184 -409.262)" fill="#fff"/>
          <path id="Path_19" data-name="Path 19" d="M497.55,342.224l-.179.349c-.115.227-.3.56-.537.978-.123.207-.257.438-.409.685l-.506.793c-.19.276-.387.575-.606.882s-.452.629-.709.955l-.389.5c-.135.169-.278.335-.421.508-.283.347-.59.695-.908,1.051-.158.179-.323.356-.492.533l-.512.54c-.175.18-.357.357-.538.538s-.362.368-.556.544c-.384.354-.765.728-1.176,1.077L489,352.7c-.208.176-.423.348-.636.523s-.427.353-.649.519l-.668.505-.335.254-.344.243-.691.486-.173.121-.043.031-.035.021-.011.007-.021.014-.085.056-.34.223-.678.444-.735.443c-.245.143-.493.3-.736.429-.488.267-.968.545-1.459.788l-.727.372-.728.344c-.479.234-.964.435-1.434.643-.235.105-.473.194-.706.29s-.463.19-.693.275c-.918.347-1.8.652-2.619.9s-1.585.453-2.263.624c-.34.083-.66.154-.955.224l-.817.171c-.495.094-.885.166-1.151.208l-.409.068-.572-5.21.363-.023c.237-.013.584-.043,1.026-.081l.732-.073c.266-.032.554-.063.862-.1.614-.084,1.308-.185,2.061-.329l.576-.11.6-.128c.406-.081.82-.188,1.25-.287.215-.051.429-.113.648-.169s.442-.113.663-.182c.443-.134.9-.26,1.358-.418l.694-.229.7-.255c.471-.164.934-.363,1.408-.551.241-.093.461-.2.693-.3l.7-.3.731-.352.366-.176.092-.044.023-.011.012-.006c-.007,0,.032-.017-.013.009l.043-.023.173-.09.692-.361.346-.181.339-.193.678-.384c.226-.126.442-.268.663-.4s.44-.266.656-.4l.638-.419c.428-.272.83-.571,1.236-.853.2-.139.395-.293.59-.436s.388-.289.576-.435l.552-.442c.183-.144.362-.29.534-.438l.516-.433c.171-.141.33-.289.492-.43.324-.282.629-.563.925-.833.588-.541,1.115-1.053,1.58-1.513l.646-.651c.194-.206.377-.392.542-.562l1.021-1.087Zm0,0" transform="translate(-462.837 -342.016)" fill="#fff"/>
        </g>
        <g id="Group_55" data-name="Group 55" transform="translate(-1116.592 2187.27)">
          <path id="Path_12" data-name="Path 12" d="M282.188,423.908a5.345,5.345,0,1,0,5.345-5.345,5.345,5.345,0,0,0-5.345,5.345" transform="translate(-258.18 -409.317)" fill="#fff"/>
          <path id="Path_20" data-name="Path 20" d="M83.722,342.016l1.021,1.087c.164.17.348.356.542.562l.646.651c.464.46.992.972,1.58,1.513.3.269.6.55.925.833.162.141.321.289.492.43l.516.433c.171.149.351.294.534.438l.552.442c.188.146.382.289.576.435s.386.3.59.436c.406.282.807.58,1.236.853l.638.419c.216.137.437.268.656.4s.436.275.663.4l.678.384.339.193.346.181.692.361.173.09.043.023c-.045-.026-.006,0-.013-.009l.012.006.023.011.092.044.366.176.731.352.695.3c.232.1.452.205.693.3.474.188.938.387,1.408.551l.7.255.694.229c.456.158.915.284,1.358.418.221.069.445.121.663.182s.434.118.648.169c.43.1.844.207,1.25.287l.6.128.576.11c.753.144,1.447.245,2.061.329.308.04.6.071.862.1l.732.073c.442.038.789.067,1.026.081l.363.023-.572,5.21-.409-.068c-.267-.042-.657-.115-1.151-.208l-.817-.171c-.3-.069-.615-.14-.955-.224-.679-.17-1.442-.37-2.263-.624s-1.7-.549-2.619-.9c-.23-.085-.459-.183-.693-.275s-.471-.184-.706-.29c-.47-.208-.955-.408-1.434-.643l-.728-.344-.727-.372c-.491-.242-.971-.52-1.459-.788-.243-.13-.49-.285-.736-.429l-.735-.443-.678-.444-.34-.223-.085-.056-.021-.014-.011-.007-.035-.021-.043-.031-.173-.121-.691-.486-.344-.243-.335-.254-.668-.505c-.223-.166-.434-.348-.649-.519s-.427-.347-.636-.523l-.613-.536c-.411-.349-.792-.723-1.176-1.077-.193-.175-.372-.365-.556-.544s-.363-.358-.538-.538l-.512-.54c-.169-.177-.334-.353-.492-.533-.319-.356-.625-.7-.908-1.051-.143-.173-.286-.339-.421-.508l-.389-.5c-.256-.326-.488-.65-.709-.955s-.416-.606-.606-.882l-.506-.793c-.151-.247-.286-.478-.409-.685-.24-.418-.422-.751-.537-.978l-.179-.349Zm0,0" transform="translate(-83.426 -342.016)" fill="#fff"/>
        </g>
      </g>
    </g>
  </g>
</svg>
