<svg xmlns="http://www.w3.org/2000/svg" width="28.959" height="26.083" viewBox="0 0 28.959 26.083">
  <g id="film-reel" transform="translate(0 -21.822)">
    <path id="Path_1039" data-name="Path 1039" d="M48.447,58.923A11.344,11.344,0,1,0,37.1,70.267,11.357,11.357,0,0,0,48.447,58.923Zm-21.7,0A10.356,10.356,0,1,1,37.1,69.279,10.368,10.368,0,0,1,26.747,58.923Z" transform="translate(-24.062 -24.06)" fill="#0d334e"/>
    <path id="Path_1040" data-name="Path 1040" d="M273.769,100.99a8.786,8.786,0,0,1,2.713,3.324.494.494,0,1,0,.9-.418,9.777,9.777,0,0,0-3.019-3.7.494.494,0,1,0-.59.793Z" transform="translate(-255.543 -73.119)" fill="#0d334e"/>
    <path id="Path_1041" data-name="Path 1041" d="M256.309,89.8a.494.494,0,1,0,.192-.606.5.5,0,0,0-.192.606C256.321,89.83,256.3,89.77,256.309,89.8Z" transform="translate(-239.384 -62.862)" fill="#0d334e"/>
    <path id="Path_1042" data-name="Path 1042" d="M68.574,275.236a8.785,8.785,0,0,1-2.713-3.324.494.494,0,0,0-.9.418,9.776,9.776,0,0,0,3.019,3.7.494.494,0,0,0,.59-.793Z" transform="translate(-60.641 -233.344)" fill="#0d334e"/>
    <path id="Path_1043" data-name="Path 1043" d="M126.669,336.23a.494.494,0,1,0-.2.614.5.5,0,0,0,.2-.614C126.657,336.2,126.681,336.26,126.669,336.23Z" transform="translate(-117.434 -293.405)" fill="#0d334e"/>
    <path id="Path_1044" data-name="Path 1044" d="M149.228,84.1a3.434,3.434,0,1,0-3.434-3.434A3.438,3.438,0,0,0,149.228,84.1Zm0-5.881a2.446,2.446,0,1,1-2.446,2.446A2.449,2.449,0,0,1,149.228,78.217Z" transform="translate(-136.187 -51.756)" fill="#0d334e"/>
    <path id="Path_1045" data-name="Path 1045" d="M152.663,261.434a3.434,3.434,0,1,0-3.434,3.435A3.438,3.438,0,0,0,152.663,261.434Zm-5.881,0a2.446,2.446,0,1,1,2.446,2.446A2.449,2.449,0,0,1,146.782,261.434Z" transform="translate(-136.187 -220.615)" fill="#0d334e"/>
    <path id="Path_1046" data-name="Path 1046" d="M239.613,174.483a3.434,3.434,0,1,0-3.434-3.434A3.438,3.438,0,0,0,239.613,174.483Zm0-5.881a2.446,2.446,0,1,1-2.446,2.446A2.449,2.449,0,0,1,239.613,168.6Z" transform="translate(-220.616 -136.185)" fill="#0d334e"/>
    <path id="Path_1047" data-name="Path 1047" d="M58.842,167.614a3.434,3.434,0,1,0,3.434,3.434A3.438,3.438,0,0,0,58.842,167.614Zm0,5.881a2.446,2.446,0,1,1,2.446-2.446A2.449,2.449,0,0,1,58.842,173.495Z" transform="translate(-51.757 -136.185)" fill="#0d334e"/>
    <path id="Path_1048" data-name="Path 1048" d="M171.383,194.952a1.748,1.748,0,1,0,1.748-1.748A1.75,1.75,0,0,0,171.383,194.952Zm2.508,0a.76.76,0,1,1-.76-.76A.761.761,0,0,1,173.891,194.952Z" transform="translate(-160.09 -160.089)" fill="#0d334e"/>
    <path id="Path_1049" data-name="Path 1049" d="M28.814,43.379a.494.494,0,0,0-.7,0,12,12,0,0,1-8.542,3.538H18.02a13.04,13.04,0,1,0-4.978.988h6.532a13.068,13.068,0,0,0,9.24-3.828A.494.494,0,0,0,28.814,43.379ZM.988,34.864A12.053,12.053,0,1,1,13.042,46.917,12.067,12.067,0,0,1,.988,34.864Z" fill="#0d334e"/>
  </g>
</svg>
