<svg xmlns="http://www.w3.org/2000/svg" width="31.062" height="30.834" viewBox="0 0 31.062 30.834">
  <g id="offer" transform="translate(0 -0.345)">
    <path id="Path_1034" data-name="Path 1034" d="M115.069,13.7v.02a3.353,3.353,0,0,0,1.913,3.2l.013.006a2.254,2.254,0,0,1,1.021.982l.005.009a3.5,3.5,0,0,0,3.292,1.837h.021a2.4,2.4,0,0,1,1.417.369,3.593,3.593,0,0,0,3.811,0,2.4,2.4,0,0,1,1.417-.369H128a3.505,3.505,0,0,0,3.293-1.839l0-.006a2.258,2.258,0,0,1,1.024-.984l.01-.005a3.353,3.353,0,0,0,1.913-3.2V13.7a2.145,2.145,0,0,1,.373-1.329,3.3,3.3,0,0,0,0-3.73,2.145,2.145,0,0,1-.374-1.329v-.02a3.352,3.352,0,0,0-1.915-3.2l-.011-.006A2.252,2.252,0,0,1,131.3,3.11l-.007-.013A3.506,3.506,0,0,0,128,1.26h-.021a2.4,2.4,0,0,1-1.417-.369h0a3.593,3.593,0,0,0-3.811,0,2.4,2.4,0,0,1-1.417.368h-.021A3.5,3.5,0,0,0,118.02,3.1l0,.009a2.255,2.255,0,0,1-1.022.983l-.012.006a3.352,3.352,0,0,0-1.913,3.2v.019A2.144,2.144,0,0,1,114.7,8.64a3.3,3.3,0,0,0,0,3.73,2.144,2.144,0,0,1,.373,1.329Zm.579-4.4a3.306,3.306,0,0,0,.576-2.051v-.02a2.2,2.2,0,0,1,1.263-2.091l.01,0a3.405,3.405,0,0,0,1.542-1.485l.006-.011a2.345,2.345,0,0,1,2.207-1.22h.02a3.543,3.543,0,0,0,2.1-.545,2.431,2.431,0,0,1,2.578,0,3.551,3.551,0,0,0,2.1.545h.02a2.342,2.342,0,0,1,2.206,1.218l.008.014a3.4,3.4,0,0,0,1.541,1.483l.01,0a2.2,2.2,0,0,1,1.264,2.092v.021a3.306,3.306,0,0,0,.576,2.051,2.136,2.136,0,0,1,0,2.416,3.309,3.309,0,0,0-.576,2.052v.019a2.2,2.2,0,0,1-1.265,2.092l-.008,0a3.409,3.409,0,0,0-1.544,1.487l0,.008a2.344,2.344,0,0,1-2.207,1.22h-.02a3.55,3.55,0,0,0-2.1.545,2.431,2.431,0,0,1-2.578,0,3.544,3.544,0,0,0-1.9-.55q-.1,0-.2.005h-.02a2.342,2.342,0,0,1-2.207-1.221l-.006-.011a3.4,3.4,0,0,0-1.54-1.482l-.011-.005a2.2,2.2,0,0,1-1.264-2.092v-.021a3.309,3.309,0,0,0-.576-2.051,2.136,2.136,0,0,1,0-2.416Zm0,0" transform="translate(-105.868)" fill="#0d334e"/>
    <path id="Path_1035" data-name="Path 1035" d="M204.776,68.976a.578.578,0,0,0,.8-.184l6.851-10.975a.578.578,0,1,0-.981-.612l-6.851,10.975A.578.578,0,0,0,204.776,68.976Zm0,0" transform="translate(-189.72 -52.491)" fill="#0d334e"/>
    <path id="Path_1036" data-name="Path 1036" d="M183.988,66.543a2.938,2.938,0,1,0-2.554-2.913A2.754,2.754,0,0,0,183.988,66.543Zm0-4.668a1.8,1.8,0,1,1-1.4,1.756A1.609,1.609,0,0,1,183.988,61.875Zm0,0" transform="translate(-168.318 -56.009)" fill="#0d334e"/>
    <path id="Path_1037" data-name="Path 1037" d="M267.684,143.428a2.576,2.576,0,1,0,2.554-2.912A2.754,2.754,0,0,0,267.684,143.428Zm3.951,0a1.434,1.434,0,1,1-1.4-1.756A1.609,1.609,0,0,1,271.635,143.428Zm0,0" transform="translate(-248.333 -130.037)" fill="#0d334e"/>
    <path id="Path_1038" data-name="Path 1038" d="M30.988,268.985a2.921,2.921,0,0,0-3.858-1.176l-4.53,2.14a3.69,3.69,0,0,0-3.146-1.941l-4.182-.115a4.421,4.421,0,0,1-1.9-.491l-.426-.221a7.506,7.506,0,0,0-6.953.007l.027-.964a.578.578,0,0,0-.562-.594l-4.586-.126a.578.578,0,0,0-.594.562L0,276.132a.578.578,0,0,0,.562.594l4.586.126h.016a.579.579,0,0,0,.578-.563l.013-.481,1.191-.638A2.044,2.044,0,0,1,8.473,275l7.114,2,.038.009a7.616,7.616,0,0,0,1.564.161,7.716,7.716,0,0,0,3.223-.7.564.564,0,0,0,.072-.039L30.8,269.756a.578.578,0,0,0,.189-.77Zm-29.815,6.6.245-8.907,3.43.094L4.6,275.68Zm18.718-.152a6.555,6.555,0,0,1-4.01.447l-7.1-1.991a3.2,3.2,0,0,0-2.384.261l-.609.326.163-5.922a6.356,6.356,0,0,1,6.458-.345l.426.221a5.583,5.583,0,0,0,2.4.62l4.182.115a2.536,2.536,0,0,1,2.411,2.021l-6.229-.171a.578.578,0,0,0-.032,1.156l6.875.189h.016a.579.579,0,0,0,.578-.562,3.69,3.69,0,0,0-.056-.75l4.646-2.2.014-.007a1.766,1.766,0,0,1,2,.28Zm0,0" transform="translate(0 -245.991)" fill="#0d334e"/>
  </g>
</svg>
